<svg width="379" height="334" viewBox="0 0 379 334" fill="none" xmlns="http://www.w3.org/2000/svg">
<path d="M121.183 329.031C150.034 336.762 180.529 335.768 208.816 326.174C237.102 316.58 261.909 298.816 280.103 275.127C298.297 251.439 309.06 222.889 311.033 193.085C313.006 163.281 306.1 133.561 291.188 107.681C288.688 103.34 288.014 98.1839 289.316 93.3466C290.618 88.5092 293.788 84.387 298.129 81.8869C302.47 79.3868 307.626 78.7135 312.463 80.0152C317.301 81.3169 321.423 84.4868 323.923 88.8278C336.314 110.281 344.351 133.969 347.571 158.534C350.792 183.099 349.134 208.058 342.692 231.98C315.697 332.724 212.152 392.506 111.408 365.512C10.664 338.518 -49.1182 234.972 -22.1239 134.228C-15.7416 110.29 -4.69824 87.8454 10.3734 68.1821C25.4449 48.5187 44.2485 32.0225 65.7065 19.6389C70.0421 17.1296 75.197 16.4454 80.0371 17.7368C84.8772 19.0282 89.0061 22.1894 91.5154 26.5251C94.0247 30.8607 94.7089 36.0156 93.4175 40.8557C92.1261 45.6958 88.9649 49.8247 84.6293 52.334C58.7747 67.2907 37.934 89.5758 24.7408 116.373C11.5475 143.17 6.59387 173.277 10.5058 202.889C14.4177 232.501 27.0197 260.288 46.7191 282.74C66.4186 305.192 92.3314 321.301 121.183 329.031Z" fill="url(#paint0_linear_1_2786)" fill-opacity="0.5"/>
<path d="M150.507 219.588C160.183 222.18 170.492 220.823 179.167 215.815C187.842 210.806 194.171 202.557 196.764 192.881C199.357 183.206 197.999 172.897 192.991 164.222C187.983 155.547 179.733 149.217 170.058 146.625C160.382 144.032 150.073 145.389 141.398 150.398C132.723 155.406 126.393 163.655 123.801 173.331C121.208 183.006 122.566 193.316 127.574 201.99C132.582 210.665 140.832 216.995 150.507 219.588Z" fill="url(#paint1_linear_1_2786)" fill-opacity="0.5"/>
<path d="M233.247 202.659C230.034 214.66 223.911 225.683 215.42 234.751C206.929 243.82 196.333 250.655 184.569 254.649C172.806 258.644 160.239 259.676 147.981 257.653C135.724 255.63 124.154 250.616 114.298 243.053C104.442 235.491 96.6026 225.614 91.4756 214.298C86.3486 202.982 84.0918 190.576 84.905 178.179C85.7183 165.783 89.5765 153.778 96.138 143.229C102.699 132.68 111.762 123.912 122.521 117.702C124.67 116.461 126.554 114.809 128.064 112.841C129.575 110.872 130.683 108.625 131.325 106.229C131.967 103.832 132.131 101.332 131.807 98.872C131.483 96.4119 130.678 94.0397 129.437 91.8908C126.932 87.551 122.805 84.3843 117.964 83.0873C115.568 82.4451 113.068 82.2812 110.608 82.6051C108.148 82.929 105.775 83.7342 103.627 84.9749C84.2186 96.1792 68.5689 112.887 58.6567 132.986C48.7445 153.085 45.015 175.671 47.9397 197.89C50.8644 220.108 60.3121 240.96 75.0879 257.809C89.8637 274.658 109.304 286.747 130.95 292.547C152.597 298.347 175.477 297.598 196.698 290.394C217.918 283.191 236.526 269.856 250.168 252.077C263.811 234.297 271.874 212.872 273.339 190.51C274.804 168.148 269.605 145.853 258.4 126.446C257.159 124.299 255.507 122.416 253.538 120.907C251.57 119.398 249.324 118.291 246.927 117.65C244.531 117.009 242.032 116.846 239.573 117.17C237.114 117.495 234.743 118.301 232.596 119.542C230.448 120.783 228.566 122.435 227.056 124.403C225.547 126.371 224.44 128.618 223.799 131.014C223.158 133.41 222.995 135.909 223.32 138.368C223.644 140.827 224.45 143.198 225.691 145.346C230.667 153.929 233.897 163.411 235.194 173.248C236.49 183.084 235.829 193.079 233.247 202.659Z" fill="url(#paint2_linear_1_2786)" fill-opacity="0.5"/>
<defs>
<linearGradient id="paint0_linear_1_2786" x1="111.408" y1="365.512" x2="196.25" y2="48.876" gradientUnits="userSpaceOnUse">
<stop stop-color="white"/>
<stop offset="1" stop-color="white" stop-opacity="0"/>
</linearGradient>
<linearGradient id="paint1_linear_1_2786" x1="150.507" y1="219.588" x2="170.058" y2="146.625" gradientUnits="userSpaceOnUse">
<stop stop-color="white"/>
<stop offset="1" stop-color="white" stop-opacity="0"/>
</linearGradient>
<linearGradient id="paint2_linear_1_2786" x1="130.95" y1="292.547" x2="182.445" y2="100.365" gradientUnits="userSpaceOnUse">
<stop stop-color="white"/>
<stop offset="1" stop-color="white" stop-opacity="0"/>
</linearGradient>
</defs>
</svg>
