<svg width="148" height="48" viewBox="0 0 148 48" fill="none" xmlns="http://www.w3.org/2000/svg">
<path d="M0.25 38V2.5H13.15C15.55 2.5 17.6167 2.88333 19.35 3.65C21.1167 4.38333 22.4667 5.45 23.4 6.85C24.3667 8.21667 24.85 9.83333 24.85 11.7C24.85 13.4 24.4833 14.9 23.75 16.2C23.0167 17.4667 21.9833 18.4667 20.65 19.2C22.45 19.9 23.85 21.0167 24.85 22.55C25.85 24.05 26.35 25.8333 26.35 27.9C26.35 29.9667 25.8167 31.75 24.75 33.25C23.6833 34.75 22.1833 35.9167 20.25 36.75C18.3167 37.5833 16.0333 38 13.4 38H0.25ZM7.45 8.65V16.8H12.35C13.9833 16.8 15.2333 16.4667 16.1 15.8C17 15.1 17.45 14.0833 17.45 12.75C17.45 11.4167 17 10.4 16.1 9.7C15.2333 9 13.9833 8.65 12.35 8.65H7.45ZM7.45 31.85H13.05C14.9167 31.85 16.35 31.45 17.35 30.65C18.3833 29.85 18.9 28.7 18.9 27.2C18.9 25.7 18.3833 24.55 17.35 23.75C16.35 22.95 14.9167 22.55 13.05 22.55H7.45V31.85Z" fill="#00E5CC"/>
<path d="M38.3059 4.45C38.3059 5.21667 38.1225 5.9 37.7559 6.5C37.4225 7.1 36.9392 7.58333 36.3059 7.95C35.7059 8.28333 35.0392 8.45 34.3059 8.45C33.5725 8.45 32.8892 8.28333 32.2559 7.95C31.6559 7.58333 31.1725 7.1 30.8059 6.5C30.4725 5.9 30.3059 5.21667 30.3059 4.45C30.3059 3.68333 30.4725 3 30.8059 2.4C31.1725 1.8 31.6559 1.33333 32.2559 1C32.8892 0.633332 33.5725 0.449998 34.3059 0.449998C35.0392 0.449998 35.7059 0.633332 36.3059 1C36.9392 1.33333 37.4225 1.8 37.7559 2.4C38.1225 3 38.3059 3.68333 38.3059 4.45ZM30.8059 38V11.6H37.8059V38H30.8059ZM42.5535 38V33.35L55.3535 17.25H42.9035V11.6H64.0535V16.25L51.2035 32.35H64.9035V38H42.5535ZM69.673 47.7V11.6H76.123L76.323 15.45C77.223 14.0167 78.423 12.9 79.923 12.1C81.423 11.2667 83.073 10.85 84.873 10.85C86.6064 10.85 88.2064 11.2 89.673 11.9C91.1397 12.6 92.423 13.5833 93.523 14.85C94.623 16.0833 95.473 17.5333 96.073 19.2C96.7064 20.8667 97.023 22.6833 97.023 24.65C97.023 26.65 96.7064 28.5 96.073 30.2C95.4397 31.9 94.5564 33.4 93.423 34.7C92.2897 35.9667 90.9564 36.9667 89.423 37.7C87.8897 38.4 86.2397 38.75 84.473 38.75C82.8397 38.75 81.3564 38.4333 80.023 37.8C78.6897 37.1333 77.573 36.2167 76.673 35.05V47.7H69.673ZM83.223 32.45C84.4897 32.45 85.623 32.1167 86.623 31.45C87.623 30.7833 88.4064 29.8833 88.973 28.75C89.573 27.5833 89.873 26.2667 89.873 24.8C89.873 23.3333 89.573 22.0333 88.973 20.9C88.4064 19.7333 87.623 18.8167 86.623 18.15C85.623 17.4833 84.4897 17.15 83.223 17.15C81.9564 17.15 80.823 17.4833 79.823 18.15C78.823 18.8167 78.023 19.7333 77.423 20.9C76.8564 22.0333 76.573 23.3333 76.573 24.8C76.573 26.2667 76.8564 27.5833 77.423 28.75C78.023 29.8833 78.823 30.7833 79.823 31.45C80.823 32.1167 81.9564 32.45 83.223 32.45ZM101.607 38V11.6H108.057L108.307 15.6C108.973 14.2 109.873 13.1333 111.007 12.4C112.14 11.6333 113.473 11.25 115.007 11.25C115.473 11.25 115.94 11.3 116.407 11.4C116.873 11.4667 117.29 11.5667 117.657 11.7L116.907 18.6C116.54 18.4667 116.157 18.3833 115.757 18.35C115.39 18.2833 115.007 18.25 114.607 18.25C112.673 18.25 111.19 18.85 110.157 20.05C109.123 21.2167 108.607 22.8833 108.607 25.05V38H101.607ZM133.496 38.75C131.529 38.75 129.713 38.4 128.046 37.7C126.379 37 124.929 36.0333 123.696 34.8C122.463 33.5333 121.496 32.05 120.796 30.35C120.129 28.65 119.796 26.8 119.796 24.8C119.796 22.8 120.146 20.9667 120.846 19.3C121.546 17.6 122.513 16.1167 123.746 14.85C125.013 13.5833 126.479 12.6 128.146 11.9C129.846 11.2 131.696 10.85 133.696 10.85C135.663 10.85 137.479 11.2 139.146 11.9C140.813 12.6 142.263 13.5833 143.496 14.85C144.729 16.0833 145.679 17.55 146.346 19.25C147.046 20.9167 147.396 22.75 147.396 24.75C147.396 26.75 147.046 28.6 146.346 30.3C145.646 32 144.663 33.4833 143.396 34.75C142.163 36.0167 140.696 37 138.996 37.7C137.329 38.4 135.496 38.75 133.496 38.75ZM133.596 32.45C134.863 32.45 135.996 32.1167 136.996 31.45C137.996 30.7833 138.779 29.8833 139.346 28.75C139.946 27.5833 140.246 26.2667 140.246 24.8C140.246 23.3333 139.946 22.0333 139.346 20.9C138.779 19.7333 137.996 18.8167 136.996 18.15C135.996 17.4833 134.863 17.15 133.596 17.15C132.329 17.15 131.196 17.4833 130.196 18.15C129.196 18.8167 128.396 19.7333 127.796 20.9C127.229 22.0333 126.946 23.3333 126.946 24.8C126.946 26.2667 127.229 27.5833 127.796 28.75C128.396 29.8833 129.196 30.7833 130.196 31.45C131.196 32.1167 132.329 32.45 133.596 32.45Z" fill="white"/>
</svg>
