<svg width="90" height="29" viewBox="0 0 90 29" fill="none" xmlns="http://www.w3.org/2000/svg">
<path d="M0.95 23V1.7H8.69C10.13 1.7 11.37 1.93 12.41 2.39C13.47 2.83 14.28 3.47 14.84 4.31C15.42 5.13 15.71 6.1 15.71 7.22C15.71 8.24 15.49 9.14 15.05 9.92C14.61 10.68 13.99 11.28 13.19 11.72C14.27 12.14 15.11 12.81 15.71 13.73C16.31 14.63 16.61 15.7 16.61 16.94C16.61 18.18 16.29 19.25 15.65 20.15C15.01 21.05 14.11 21.75 12.95 22.25C11.79 22.75 10.42 23 8.84 23H0.95ZM5.27 5.39V10.28H8.21C9.19 10.28 9.94 10.08 10.46 9.68C11 9.26 11.27 8.65 11.27 7.85C11.27 7.05 11 6.44 10.46 6.02C9.94 5.6 9.19 5.39 8.21 5.39H5.27ZM5.27 19.31H8.63C9.75 19.31 10.61 19.07 11.21 18.59C11.83 18.11 12.14 17.42 12.14 16.52C12.14 15.62 11.83 14.93 11.21 14.45C10.61 13.97 9.75 13.73 8.63 13.73H5.27V19.31Z" fill="#00E5CC"/>
<path d="M23.7835 2.87C23.7835 3.33 23.6735 3.74 23.4535 4.1C23.2535 4.46 22.9635 4.75 22.5835 4.97C22.2235 5.17 21.8235 5.27 21.3835 5.27C20.9435 5.27 20.5335 5.17 20.1535 4.97C19.7935 4.75 19.5035 4.46 19.2835 4.1C19.0835 3.74 18.9835 3.33 18.9835 2.87C18.9835 2.41 19.0835 2 19.2835 1.64C19.5035 1.28 19.7935 1 20.1535 0.8C20.5335 0.579999 20.9435 0.469999 21.3835 0.469999C21.8235 0.469999 22.2235 0.579999 22.5835 0.8C22.9635 1 23.2535 1.28 23.4535 1.64C23.6735 2 23.7835 2.41 23.7835 2.87ZM19.2835 23V7.16H23.4835V23H19.2835ZM26.3321 23V20.21L34.0121 10.55H26.5421V7.16H39.2321V9.95L31.5221 19.61H39.7421V23H26.3321ZM42.6038 28.82V7.16H46.4738L46.5938 9.47C47.1338 8.61 47.8538 7.94 48.7538 7.46C49.6538 6.96 50.6438 6.71 51.7238 6.71C52.7638 6.71 53.7238 6.92 54.6038 7.34C55.4838 7.76 56.2538 8.35 56.9138 9.11C57.5738 9.85 58.0838 10.72 58.4438 11.72C58.8238 12.72 59.0138 13.81 59.0138 14.99C59.0138 16.19 58.8238 17.3 58.4438 18.32C58.0638 19.34 57.5338 20.24 56.8538 21.02C56.1738 21.78 55.3738 22.38 54.4538 22.82C53.5338 23.24 52.5438 23.45 51.4838 23.45C50.5038 23.45 49.6138 23.26 48.8138 22.88C48.0138 22.48 47.3438 21.93 46.8038 21.23V28.82H42.6038ZM50.7338 19.67C51.4938 19.67 52.1738 19.47 52.7738 19.07C53.3738 18.67 53.8438 18.13 54.1838 17.45C54.5438 16.75 54.7238 15.96 54.7238 15.08C54.7238 14.2 54.5438 13.42 54.1838 12.74C53.8438 12.04 53.3738 11.49 52.7738 11.09C52.1738 10.69 51.4938 10.49 50.7338 10.49C49.9738 10.49 49.2938 10.69 48.6938 11.09C48.0938 11.49 47.6138 12.04 47.2538 12.74C46.9138 13.42 46.7438 14.2 46.7438 15.08C46.7438 15.96 46.9138 16.75 47.2538 17.45C47.6138 18.13 48.0938 18.67 48.6938 19.07C49.2938 19.47 49.9738 19.67 50.7338 19.67ZM61.764 23V7.16H65.634L65.784 9.56C66.184 8.72 66.724 8.08 67.404 7.64C68.084 7.18 68.884 6.95 69.804 6.95C70.084 6.95 70.364 6.98 70.644 7.04C70.924 7.08 71.174 7.14 71.394 7.22L70.944 11.36C70.724 11.28 70.494 11.23 70.254 11.21C70.034 11.17 69.804 11.15 69.564 11.15C68.404 11.15 67.514 11.51 66.894 12.23C66.274 12.93 65.964 13.93 65.964 15.23V23H61.764ZM80.8977 23.45C79.7177 23.45 78.6277 23.24 77.6277 22.82C76.6277 22.4 75.7577 21.82 75.0177 21.08C74.2777 20.32 73.6977 19.43 73.2777 18.41C72.8777 17.39 72.6777 16.28 72.6777 15.08C72.6777 13.88 72.8877 12.78 73.3077 11.78C73.7277 10.76 74.3077 9.87 75.0477 9.11C75.8077 8.35 76.6877 7.76 77.6877 7.34C78.7077 6.92 79.8177 6.71 81.0177 6.71C82.1977 6.71 83.2877 6.92 84.2877 7.34C85.2877 7.76 86.1577 8.35 86.8977 9.11C87.6377 9.85 88.2077 10.73 88.6077 11.75C89.0277 12.75 89.2377 13.85 89.2377 15.05C89.2377 16.25 89.0277 17.36 88.6077 18.38C88.1877 19.4 87.5977 20.29 86.8377 21.05C86.0977 21.81 85.2177 22.4 84.1977 22.82C83.1977 23.24 82.0977 23.45 80.8977 23.45ZM80.9577 19.67C81.7177 19.67 82.3977 19.47 82.9977 19.07C83.5977 18.67 84.0677 18.13 84.4077 17.45C84.7677 16.75 84.9477 15.96 84.9477 15.08C84.9477 14.2 84.7677 13.42 84.4077 12.74C84.0677 12.04 83.5977 11.49 82.9977 11.09C82.3977 10.69 81.7177 10.49 80.9577 10.49C80.1977 10.49 79.5177 10.69 78.9177 11.09C78.3177 11.49 77.8377 12.04 77.4777 12.74C77.1377 13.42 76.9677 14.2 76.9677 15.08C76.9677 15.96 77.1377 16.75 77.4777 17.45C77.8377 18.13 78.3177 18.67 78.9177 19.07C79.5177 19.47 80.1977 19.67 80.9577 19.67Z" fill="#060640"/>
</svg>
